<?xml version="1.0" encoding="UTF-8"?>
<svg width="240px" height="288px" viewBox="0 0 240 288" version="1.1" xmlns="http://www.w3.org/2000/svg" xmlns:xlink="http://www.w3.org/1999/xlink" xmlns:sketch="http://www.bohemiancoding.com/sketch/ns">
    <!-- Generator: Sketch 3.3.3 (12081) - http://www.bohemiancoding.com/sketch -->
    <title>ruby</title>
    <desc>Created with Sketch.</desc>
    <defs></defs>
    <g id="Page-1" stroke="none" stroke-width="1" fill="none" fill-rule="evenodd" sketch:type="MSPage">
        <g id="ruby" sketch:type="MSLayerGroup">
            <g id="Page-1" sketch:type="MSShapeGroup">
                <g id="ruby">
                    <g id="Page-1">
                        <g id="ruby">
                            <g id="Page-1">
                                <g id="Imported-Layers" transform="translate(0.000000, 0.239740)">
                                    <path d="M0.0854237288,0.203389831 L239.250508,0.203389831 L239.250508,287.717288 L0.0854237288,287.717288 L0.0854237288,0.203389831 L0.0854237288,0.203389831 Z" id="Fill-1" fill="#FF8795"></path>
                                    <path d="M178.687119,152.262712 C178.687119,183.961017 152.989831,209.658305 121.290508,209.658305 C89.5922031,209.658305 63.8949153,183.961017 63.8949153,152.262712 C63.8949153,120.564407 89.5922031,94.8671186 121.290508,94.8671186 C152.989831,94.8671186 178.687119,120.564407 178.687119,152.262712" id="Fill-2" fill="#F24C6D"></path>
                                    <path d="M157.92,129.258305 L85.7105085,129.258305 C84.5949153,129.258305 83.6888136,130.164407 83.6888136,131.28 L83.6888136,195.670169 C93.6610166,204.03356 106.512203,209.658305 120.546102,209.658305 C135.80339,209.658305 149.661356,204.404745 159.940678,194.692881 L159.940678,131.28 C159.940678,130.164407 159.034576,129.258305 157.92,129.258305" id="Fill-3" fill="#FFFFFF"></path>
                                    <path d="M83.6888136,129.642712 L159.941695,129.642712 L159.941695,143.858644 L83.6888136,143.858644 L83.6888136,129.642712 L83.6888136,129.642712 Z" id="Fill-4" fill="#FFA2A2"></path>
                                    <path d="M154.129831,90.2644071 C154.129831,90.966102 153.561356,91.5345763 152.859661,91.5345763 C152.157966,91.5345763 151.590508,90.966102 151.590508,90.2644071 C151.590508,89.5637289 152.157966,88.9952546 152.859661,88.9952546 C153.561356,88.9952546 154.129831,89.5637289 154.129831,90.2644071" id="Fill-5" fill="#D8284D"></path>
                                    <path d="M63.1027119,112.063729 C63.1027119,112.765424 62.5342373,113.333898 61.8325424,113.333898 C61.1318644,113.333898 60.5633898,112.765424 60.5633898,112.063729 C60.5633898,111.363051 61.1318644,110.794576 61.8325424,110.794576 C62.5342373,110.794576 63.1027119,111.363051 63.1027119,112.063729" id="Fill-6" fill="#D8284D"></path>
                                    <path d="M123.834915,94.8671186 C123.834915,96.0061018 122.911526,96.9294922 121.772542,96.9294922 C120.63356,96.9294922 119.710169,96.0061018 119.710169,94.8671186 C119.710169,93.728136 120.63356,92.8047454 121.772542,92.8047454 C122.911526,92.8047454 123.834915,93.728136 123.834915,94.8671186" id="Fill-7" fill="#D8284D"></path>
                                    <path d="M65.9583051,152.262712 C65.9583051,153.401695 65.0349153,154.325085 63.8949153,154.325085 C62.7559322,154.325085 61.8325424,153.401695 61.8325424,152.262712 C61.8325424,151.123729 62.7559322,150.200339 63.8949153,150.200339 C65.0349153,150.200339 65.9583051,151.123729 65.9583051,152.262712" id="Fill-8" fill="#D8284D"></path>
                                    <path d="M180.748474,152.262712 C180.748474,153.401695 179.826102,154.325085 178.687119,154.325085 C177.547119,154.325085 176.623729,153.401695 176.623729,152.262712 C176.623729,151.123729 177.547119,150.200339 178.687119,150.200339 C179.826102,150.200339 180.748474,151.123729 180.748474,152.262712" id="Fill-9" fill="#D8284D"></path>
                                    <path d="M55.7237288,125.804745 L49.0301695,125.804745 C48.7484745,125.804745 48.5216949,125.576949 48.5216949,125.296271 C48.5216949,125.015593 48.7484745,124.787797 49.0301695,124.787797 L55.7237288,124.787797 C56.0044068,124.787797 56.2322034,125.015593 56.2322034,125.296271 C56.2322034,125.576949 56.0044068,125.804745 55.7237288,125.804745" id="Fill-10" fill="#D8284D"></path>
                                    <path d="M52.3769492,129.151526 C52.0952542,129.151526 51.8684745,128.923729 51.8684745,128.643051 L51.8684745,121.949492 C51.8684745,121.668813 52.0952542,121.441017 52.3769492,121.441017 C52.6576271,121.441017 52.8854237,121.668813 52.8854237,121.949492 L52.8854237,128.643051 C52.8854237,128.923729 52.6576271,129.151526 52.3769492,129.151526" id="Fill-11" fill="#D8284D"></path>
                                    <path d="M194.129492,174.056949 L187.436949,174.056949 C187.156271,174.056949 186.928474,173.829153 186.928474,173.548474 C186.928474,173.266779 187.156271,173.04 187.436949,173.04 L194.129492,173.04 C194.411187,173.04 194.637966,173.266779 194.637966,173.548474 C194.637966,173.829153 194.411187,174.056949 194.129492,174.056949" id="Fill-12" fill="#D8284D"></path>
                                    <path d="M190.782712,177.402712 C190.502034,177.402712 190.274237,177.175932 190.274237,176.894237 L190.274237,170.201695 C190.274237,169.92 190.502034,169.693221 190.782712,169.693221 C191.064407,169.693221 191.291187,169.92 191.291187,170.201695 L191.291187,176.894237 C191.291187,177.175932 191.064407,177.402712 190.782712,177.402712" id="Fill-13" fill="#D8284D"></path>
                                    <path d="M98.6186438,82.1847458 C98.3369491,82.1847458 98.1091526,81.9579661 98.1091526,81.6762712 L98.1091526,79.9545763 C98.1091526,79.6738983 98.3369491,79.4461017 98.6186438,79.4461017 C98.8993219,79.4461017 99.1261018,79.6738983 99.1261018,79.9545763 L99.1261018,81.6762712 C99.1261018,81.9579661 98.8993219,82.1847458 98.6186438,82.1847458" id="Fill-14" fill="#D8284D"></path>
                                    <path d="M98.6186438,88.2894917 C98.3369491,88.2894917 98.1091526,88.0627123 98.1091526,87.7810166 L98.1091526,86.0593217 C98.1091526,85.7786443 98.3369491,85.5508474 98.6186438,85.5508474 C98.8993219,85.5508474 99.1261018,85.7786443 99.1261018,86.0593217 L99.1261018,87.7810166 C99.1261018,88.0627123 98.8993219,88.2894917 98.6186438,88.2894917" id="Fill-15" fill="#D8284D"></path>
                                    <path d="M102.610169,84.4545763 L100.888474,84.4545763 C100.607797,84.4545763 100.38,84.2277966 100.38,83.9461017 C100.38,83.6654237 100.607797,83.4376271 100.888474,83.4376271 L102.610169,83.4376271 C102.890847,83.4376271 103.118644,83.6654237 103.118644,83.9461017 C103.118644,84.2277966 102.890847,84.4545763 102.610169,84.4545763" id="Fill-16" fill="#D8284D"></path>
                                    <path d="M96.4657632,84.4545763 L94.744068,84.4545763 C94.4623731,84.4545763 94.2355929,84.2277966 94.2355929,83.9461017 C94.2355929,83.6654237 94.4623731,83.4376271 94.744068,83.4376271 L96.4657632,83.4376271 C96.7474579,83.4376271 96.9742368,83.6654237 96.9742368,83.9461017 C96.9742368,84.2277966 96.7474579,84.4545763 96.4657632,84.4545763" id="Fill-17" fill="#D8284D"></path>
                                    <path d="M100.279322,82.7938983 C100.149153,82.7938983 100.018983,82.7440678 99.9203395,82.6454237 C99.7210166,82.4461017 99.7210166,82.1247458 99.9203395,81.9264407 L101.137627,80.7081356 C101.335932,80.5098305 101.658305,80.5098305 101.85661,80.7081356 C102.054915,80.9074576 102.054915,81.2288136 101.85661,81.4271187 L100.639322,82.6454237 C100.539661,82.7440678 100.409492,82.7938983 100.279322,82.7938983" id="Fill-18" fill="#D8284D"></path>
                                    <path d="M101.49661,87.1769494 C101.36644,87.1769494 101.237288,87.1271186 101.137627,87.0274577 L99.9203395,85.8101691 C99.7210166,85.6118644 99.7210166,85.2894915 99.9203395,85.0911864 C100.118644,84.8918644 100.441017,84.8918644 100.639322,85.0911864 L101.85661,86.3084743 C102.054915,86.5067794 102.054915,86.8291526 101.85661,87.0274577 C101.756949,87.1271186 101.626779,87.1769494 101.49661,87.1769494" id="Fill-19" fill="#D8284D"></path>
                                    <path d="M96.9457632,82.7938983 C96.815593,82.7938983 96.6854237,82.7440678 96.5857632,82.6454237 L95.3684743,81.4271187 C95.1701691,81.2288136 95.1701691,80.9074576 95.3684743,80.7081356 C95.5677969,80.5098305 95.8891526,80.5098305 96.0874579,80.7081356 L97.3057632,81.9264407 C97.5040685,82.1247458 97.5040685,82.4461017 97.3057632,82.6454237 C97.2061018,82.7440678 97.0759315,82.7938983 96.9457632,82.7938983" id="Fill-20" fill="#D8284D"></path>
                                    <path d="M95.7284743,87.1769494 C95.5983051,87.1769494 95.468136,87.1271186 95.3684743,87.0274577 C95.1701691,86.8291526 95.1701691,86.5067794 95.3684743,86.3084743 L96.5857632,85.0911864 C96.7850842,84.8918644 97.1064403,84.8918644 97.3057632,85.0911864 C97.5040685,85.2894915 97.5040685,85.6118644 97.3057632,85.8101691 L96.0874579,87.0274577 C95.9877969,87.1271186 95.8576269,87.1769494 95.7284743,87.1769494" id="Fill-21" fill="#D8284D"></path>
                                    <path d="M164.118305,92.2922031 C162.416949,92.2922031 161.032881,90.9091526 161.032881,89.2077969 C161.032881,87.5064403 162.416949,86.1223731 164.118305,86.1223731 C165.819661,86.1223731 167.202712,87.5064403 167.202712,89.2077969 C167.202712,90.9091526 165.819661,92.2922031 164.118305,92.2922031 L164.118305,92.2922031 L164.118305,92.2922031 Z M164.118305,87.1393217 C162.977288,87.1393217 162.049831,88.0677969 162.049831,89.2077969 C162.049831,90.3477969 162.977288,91.2752546 164.118305,91.2752546 C165.258305,91.2752546 166.185763,90.3477969 166.185763,89.2077969 C166.185763,88.0677969 165.258305,87.1393217 164.118305,87.1393217 L164.118305,87.1393217 L164.118305,87.1393217 Z" id="Fill-22" fill="#D8284D"></path>
                                    <path d="M170.004407,100.408474 L163.311864,100.408474 C163.030169,100.408474 162.80339,100.181695 162.80339,99.9 C162.80339,99.6193219 163.030169,99.3915254 163.311864,99.3915254 L170.004407,99.3915254 C170.285085,99.3915254 170.512881,99.6193219 170.512881,99.9 C170.512881,100.181695 170.285085,100.408474 170.004407,100.408474" id="Fill-23" fill="#FFFFFF"></path>
                                    <path d="M166.657627,103.755255 C166.375932,103.755255 166.149153,103.527458 166.149153,103.246779 L166.149153,96.5542368 C166.149153,96.2735597 166.375932,96.0457632 166.657627,96.0457632 C166.938305,96.0457632 167.166102,96.2735597 167.166102,96.5542368 L167.166102,103.246779 C167.166102,103.527458 166.938305,103.755255 166.657627,103.755255" id="Fill-24" fill="#FFFFFF"></path>
                                    <path d="M192.592881,158.692881 C192.369153,158.692881 192.186102,158.510847 192.186102,158.286102 L192.186102,156.896949 C192.186102,156.672203 192.369153,156.490169 192.592881,156.490169 C192.817627,156.490169 193.000678,156.672203 193.000678,156.896949 L193.000678,158.286102 C193.000678,158.510847 192.817627,158.692881 192.592881,158.692881" id="Fill-25" fill="#FFFFFF"></path>
                                    <path d="M192.592881,163.621017 C192.369153,163.621017 192.186102,163.437966 192.186102,163.214237 L192.186102,161.824068 C192.186102,161.599322 192.369153,161.417288 192.592881,161.417288 C192.817627,161.417288 193.000678,161.599322 193.000678,161.824068 L193.000678,163.214237 C193.000678,163.437966 192.817627,163.621017 192.592881,163.621017" id="Fill-26" fill="#FFFFFF"></path>
                                    <path d="M195.81661,160.525424 L194.425424,160.525424 C194.201695,160.525424 194.018644,160.342373 194.018644,160.118644 C194.018644,159.893898 194.201695,159.711864 194.425424,159.711864 L195.81661,159.711864 C196.040339,159.711864 196.22339,159.893898 196.22339,160.118644 C196.22339,160.342373 196.040339,160.525424 195.81661,160.525424" id="Fill-27" fill="#FFFFFF"></path>
                                    <path d="M190.856949,160.525424 L189.466779,160.525424 C189.243051,160.525424 189.06,160.342373 189.06,160.118644 C189.06,159.893898 189.243051,159.711864 189.466779,159.711864 L190.856949,159.711864 C191.080678,159.711864 191.263729,159.893898 191.263729,160.118644 C191.263729,160.342373 191.080678,160.525424 190.856949,160.525424" id="Fill-28" fill="#FFFFFF"></path>
                                    <path d="M193.934237,159.184068 C193.829492,159.184068 193.725763,159.144407 193.64644,159.065085 C193.486779,158.90644 193.486779,158.648136 193.64644,158.490508 L194.628813,157.507119 C194.788474,157.348474 195.046779,157.348474 195.205424,157.507119 C195.364068,157.666779 195.364068,157.924068 195.205424,158.082712 L194.222034,159.065085 C194.142712,159.144407 194.038983,159.184068 193.934237,159.184068" id="Fill-29" fill="#FFFFFF"></path>
                                    <path d="M194.917627,162.722034 C194.812881,162.722034 194.709153,162.682373 194.628813,162.603051 L193.64644,161.620678 C193.486779,161.462034 193.486779,161.204745 193.64644,161.045085 C193.805085,160.88644 194.06339,160.88644 194.222034,161.045085 L195.205424,162.028474 C195.364068,162.186102 195.364068,162.444407 195.205424,162.603051 C195.126102,162.682373 195.021356,162.722034 194.917627,162.722034" id="Fill-30" fill="#FFFFFF"></path>
                                    <path d="M191.24339,159.184068 C191.139661,159.184068 191.035932,159.144407 190.955593,159.065085 L189.972203,158.082712 C189.81356,157.924068 189.81356,157.666779 189.972203,157.507119 C190.131864,157.348474 190.389153,157.348474 190.548813,157.507119 L191.532203,158.490508 C191.690847,158.648136 191.690847,158.90644 191.532203,159.065085 C191.452881,159.144407 191.348136,159.184068 191.24339,159.184068" id="Fill-31" fill="#FFFFFF"></path>
                                    <path d="M190.261017,162.722034 C190.156271,162.722034 190.052542,162.682373 189.972203,162.603051 C189.81356,162.444407 189.81356,162.186102 189.972203,162.028474 L190.955593,161.045085 C191.114237,160.88644 191.372542,160.88644 191.532203,161.045085 C191.690847,161.204745 191.690847,161.462034 191.532203,161.620678 L190.548813,162.603051 C190.469492,162.682373 190.364745,162.722034 190.261017,162.722034" id="Fill-32" fill="#FFFFFF"></path>
                                    <path d="M46.4542373,117.725085 C44.7528813,117.725085 43.3688136,116.341017 43.3688136,114.640678 C43.3688136,112.939322 44.7528813,111.555255 46.4542373,111.555255 C48.1545763,111.555255 49.538644,112.939322 49.538644,114.640678 C49.538644,116.341017 48.1545763,117.725085 46.4542373,117.725085 L46.4542373,117.725085 L46.4542373,117.725085 Z M46.4542373,112.572203 C45.3132203,112.572203 44.3857627,113.499661 44.3857627,114.640678 C44.3857627,115.780678 45.3132203,116.708136 46.4542373,116.708136 C47.5932203,116.708136 48.5216949,115.780678 48.5216949,114.640678 C48.5216949,113.499661 47.5932203,112.572203 46.4542373,112.572203 L46.4542373,112.572203 L46.4542373,112.572203 Z" id="Fill-33" fill="#FFFFFF"></path>
                                    <path d="M64.5935593,143.803729 C64.5661017,143.803729 64.5406779,143.801695 64.5132203,143.797627 C64.2355932,143.753898 64.0454237,143.49356 64.0891526,143.216949 C67.9637288,118.522373 87.1372877,99.1983053 111.800339,95.1325423 C112.074915,95.0827123 112.339322,95.273898 112.385085,95.5515257 C112.430847,95.828136 112.242712,96.0905078 111.966102,96.136271 C87.7362711,100.130847 68.900339,119.114237 65.0949153,143.374576 C65.0542373,143.624745 64.838644,143.803729 64.5935593,143.803729" id="Fill-34" fill="#D8284D"></path>
                                    <path d="M121.290508,210.166779 C92.5850846,210.166779 67.9352542,188.764068 63.9518644,160.383051 C63.9132203,160.104407 64.1064407,159.848136 64.3840678,159.808474 C64.6535593,159.763729 64.9189831,159.963051 64.958644,160.241695 C68.8718644,188.12339 93.0894917,209.149831 121.290508,209.149831 C149.301356,209.149831 172.910847,189.118983 177.429153,161.522034 C177.473898,161.244407 177.740339,161.059322 178.012881,161.102034 C178.289492,161.146779 178.477627,161.408136 178.431864,161.685763 C173.834237,189.777966 149.803729,210.166779 121.290508,210.166779" id="Fill-35" fill="#D8284D"></path>
                                    <path d="M178.074915,144.366102 C177.826779,144.366102 177.610169,144.185085 177.572542,143.931864 C173.959322,119.299322 155.01661,100.08 130.438983,96.1067798 C130.162373,96.0620342 129.974237,95.8016949 130.02,95.524068 C130.062712,95.2464403 130.324068,95.0572877 130.602712,95.1030506 C155.618644,99.1474579 174.9,118.710508 178.579322,143.784407 C178.62,144.062034 178.427797,144.320339 178.149153,144.361017 C178.124745,144.365085 178.100339,144.366102 178.074915,144.366102" id="Fill-36" fill="#D8284D"></path>
                                    <path d="M106.41661,158.118305 L137.974576,158.118305 C138.169831,158.118305 138.350847,158.215932 138.459661,158.377627 L145.992203,169.676949 C146.142712,169.901695 146.117288,170.200678 145.932203,170.397966 L122.453898,195.486102 C122.225085,195.730169 121.835593,195.731187 121.605763,195.488136 L98.135593,170.732542 C97.9474579,170.534237 97.9230509,170.232203 98.075593,170.005424 L105.934576,158.375593 C106.042373,158.214915 106.22339,158.118305 106.41661,158.118305" id="Fill-37" fill="#FF7684"></path>
                                    <path d="M122.028813,196.178644 C121.729831,196.178644 121.441017,196.054576 121.23661,195.836949 L97.7654237,171.082373 C97.4125421,170.707119 97.3657632,170.147797 97.6545763,169.721695 L105.51356,158.090847 C105.716949,157.789831 106.054576,157.609831 106.41661,157.609831 L137.974576,157.609831 C138.340678,157.609831 138.680339,157.791864 138.882712,158.096949 L146.414237,169.395255 C146.696949,169.818305 146.652203,170.374576 146.304407,170.745763 L122.825085,195.832881 C122.619661,196.052542 122.330847,196.177627 122.030847,196.178644 L122.028813,196.178644 L122.028813,196.178644 Z M106.41661,158.626779 C106.392203,158.626779 106.368813,158.64 106.355593,158.660339 L98.4966106,170.290169 L121.974915,195.138305 L122.453898,195.486102 L122.082712,195.138305 L145.562034,170.051187 L138.035593,158.660339 L106.41661,158.626779 L106.41661,158.626779 Z" id="Fill-38" fill="#E63C52"></path>
                                    <path d="M112.10644,172.297627 L105.903051,172.297627 C105.422034,172.297627 105.174915,172.874237 105.507458,173.223051 L118.884407,187.292542 C118.880339,187.22644 118.864068,187.159322 118.832542,187.089153 L112.10644,172.297627" id="Fill-39" fill="#FFBEC4"></path>
                                    <path d="M116.446779,172.297627 L123.183051,187.608813 L129.918305,172.297627 L116.446779,172.297627" id="Fill-40" fill="#FFBEC4"></path>
                                    <path d="M134.592203,172.297627 C134.324745,172.297627 134.083729,172.454237 133.972881,172.696271 L127.926102,186.028474 L140.532203,172.297627 L134.592203,172.297627" id="Fill-41" fill="#FFBEC4"></path>
                                    <path d="M128.511864,168.849153 C128.993898,168.849153 129.241017,168.271526 128.907458,167.922712 L124.241695,163.049492 L118.689153,168.849153 L128.511864,168.849153" id="Fill-42" fill="#FFBEC4"></path>
                                    <path d="M127.744068,162.62339 L132.149492,167.225085 L134.582034,161.695932 L128.138644,161.695932 C127.65661,161.695932 127.409492,162.274576 127.744068,162.62339" id="Fill-43" fill="#FFBEC4"></path>
                                    <path d="M112.121695,162.464745 L114.117966,167.005424 L119.202712,161.695932 L112.622034,161.695932 C112.22644,161.695932 111.962034,162.102712 112.121695,162.464745" id="Fill-44" fill="#FFBEC4"></path>
                                    <path d="M140.693898,168.849153 C141.132203,168.849153 141.392542,168.362034 141.149492,167.997966 L138.820678,164.503729 L136.908813,168.849153 L140.693898,168.849153" id="Fill-45" fill="#FFBEC4"></path>
                                    <path d="M109.730847,168.849153 C110.12644,168.849153 110.391864,168.44339 110.232203,168.081356 L108.835932,164.908474 L106.17356,168.849153 L109.730847,168.849153" id="Fill-46" fill="#FFBEC4"></path>
                                    <path d="M118.330169,188.37661 C118.052542,188.37661 117.777966,188.263729 117.568474,188.044068 L102.606102,172.306779 C102.310169,171.995593 102.231864,171.557288 102.400678,171.162712 C102.567458,170.774237 102.947797,170.523051 103.370847,170.523051 L111.177966,170.523051 C111.589831,170.523051 111.966102,170.765085 112.137966,171.141356 L119.296271,186.878644 C119.512881,187.357627 119.360339,187.897627 118.925085,188.191526 C118.74,188.315593 118.53356,188.37661 118.330169,188.37661 L118.330169,188.37661 L118.330169,188.37661 Z M103.370847,171.54 L103.34339,171.606102 L118.305763,187.34339 L111.21356,171.56339 L103.370847,171.54 L103.370847,171.54 Z" id="Fill-47" fill="#E63C52"></path>
                                    <path d="M122.195593,189.550169 C121.769492,189.550169 121.399322,189.308136 121.228474,188.918644 L113.448813,171.235932 C113.380678,171.079322 113.395932,170.897288 113.489492,170.753898 C113.583051,170.610508 113.743729,170.523051 113.914576,170.523051 L129.63661,170.523051 C129.99356,170.523051 130.324068,170.702034 130.520339,171.002034 C130.71661,171.302034 130.747119,171.676271 130.603729,172.004745 L123.161695,188.918644 C122.990847,189.308136 122.620678,189.550169 122.195593,189.550169 L122.195593,189.550169 L122.195593,189.550169 Z M114.695593,171.543051 L122.16,188.509831 L129.672203,171.594915 L114.695593,171.543051 L114.695593,171.543051 Z" id="Fill-48" fill="#E63C52"></path>
                                    <path d="M126.152542,188.218983 C125.951187,188.218983 125.747797,188.16 125.565763,188.038983 C125.122373,187.746102 124.966779,187.205085 125.185424,186.721017 L132.251187,171.142373 C132.421017,170.766102 132.798305,170.523051 133.212203,170.523051 L140.448813,170.523051 C140.873898,170.523051 141.245085,170.765085 141.414915,171.15356 C141.585763,171.543051 141.514576,171.979322 141.226779,172.292542 L126.924407,187.871187 C126.714915,188.1 126.436271,188.218983 126.152542,188.218983 L126.152542,188.218983 L126.152542,188.218983 Z M133.212203,171.54 L126.111864,187.141017 L140.477288,171.605085 L140.448813,171.54 L133.212203,171.54 L133.212203,171.54 Z" id="Fill-49" fill="#E63C52"></path>
                                    <path d="M128.511864,169.357627 L116.226102,169.357627 C115.803051,169.357627 115.421695,169.10644 115.254915,168.715932 C115.089153,168.32644 115.170508,167.876949 115.46339,167.570847 L121.606779,161.154915 C122.00339,160.741017 122.734576,160.741017 123.132203,161.154915 L129.274576,167.570847 C129.567458,167.877966 129.649831,168.32644 129.483051,168.716949 C129.317288,169.10644 128.935932,169.357627 128.511864,169.357627 L128.511864,169.357627 L128.511864,169.357627 Z M122.396949,161.858644 L116.198644,168.274576 L116.226102,168.340678 L128.511864,168.340678 L122.396949,161.858644 L122.396949,161.858644 Z" id="Fill-50" fill="#E63C52"></path>
                                    <path d="M131.561695,168.255255 C131.275932,168.255255 131.000339,168.139322 130.8,167.928813 L124.842712,161.708136 C124.550847,161.401017 124.468474,160.951526 124.635255,160.562034 C124.804068,160.167458 125.176271,159.921356 125.605424,159.921356 L134.299322,159.921356 C134.657288,159.921356 134.987797,160.100339 135.183051,160.400339 C135.380339,160.700339 135.410847,161.074576 135.267458,161.403051 L132.529831,167.624745 C132.385424,167.949153 132.09356,168.178983 131.743729,168.24 C131.682712,168.250169 131.621695,168.255255 131.561695,168.255255 L131.561695,168.255255 L131.561695,168.255255 Z M125.605424,160.938305 L131.535255,167.226102 L134.335932,160.994237 L134.299322,160.938305 L125.605424,160.938305 L125.605424,160.938305 Z" id="Fill-51" fill="#E63C52"></path>
                                    <path d="M112.937288,168.504407 C112.876271,168.504407 112.815255,168.499322 112.754237,168.489153 C112.40644,168.428136 112.11356,168.198305 111.970169,167.874915 L109.122712,161.403051 C108.979322,161.074576 109.009831,160.700339 109.206102,160.400339 C109.402373,160.100339 109.732881,159.921356 110.089831,159.921356 L119.131526,159.921356 C119.561695,159.921356 119.933898,160.167458 120.103729,160.562034 C120.270508,160.951526 120.188136,161.401017 119.895255,161.708136 L113.698983,168.178983 C113.497627,168.389492 113.223051,168.504407 112.937288,168.504407 L112.937288,168.504407 L112.937288,168.504407 Z M110.054237,160.994237 L112.900678,167.464068 L119.161017,161.005424 L110.089831,160.938305 L109.588474,161.198644 L110.054237,160.994237 L110.054237,160.994237 Z" id="Fill-52" fill="#E63C52"></path>
                                    <path d="M140.693898,169.357627 L134.659322,169.357627 C134.300339,169.357627 133.969831,169.178644 133.774576,168.879661 C133.578305,168.579661 133.547797,168.204407 133.692203,167.876949 L136.091187,162.422034 C136.245763,162.069153 136.581356,161.828136 136.967797,161.795593 C137.338983,161.762034 137.722373,161.94 137.936949,162.262373 L141.57356,167.715255 C141.572542,167.715255 141.57356,167.715255 141.57356,167.716271 C141.789153,168.040678 141.809492,168.455593 141.625424,168.800339 C141.441356,169.144068 141.084407,169.357627 140.693898,169.357627 L140.693898,169.357627 L140.693898,169.357627 Z M137.089831,162.825763 L134.623729,168.285763 L140.693898,168.340678 L141.150508,167.997966 L140.727458,168.279661 L137.089831,162.825763 L137.089831,162.825763 Z" id="Fill-53" fill="#E63C52"></path>
                                    <path d="M109.730847,169.357627 L103.817288,169.357627 C103.424745,169.357627 103.066779,169.143051 102.883729,168.796271 C102.699661,168.450508 102.722034,168.03356 102.942712,167.710169 L106.524407,162.408813 C106.74,162.089492 107.117288,161.921695 107.494576,161.948136 C107.877966,161.983729 108.211526,162.223729 108.366102,162.575593 L110.697966,167.876949 C110.842373,168.204407 110.811864,168.579661 110.614576,168.879661 C110.419322,169.178644 110.088813,169.357627 109.730847,169.357627 L109.730847,169.357627 L109.730847,169.357627 Z M107.434576,162.984407 L103.783729,168.279661 L103.817288,168.340678 L109.730847,168.340678 L107.434576,162.984407 L107.434576,162.984407 Z" id="Fill-54" fill="#E63C52"></path>
                                    <path d="M157.033221,143.806779 L84.500339,143.806779 C84.218644,143.806779 83.9908474,143.578983 83.9908474,143.298305 C83.9908474,143.017627 84.218644,142.789831 84.500339,142.789831 L157.033221,142.789831 C157.313898,142.789831 157.541695,143.017627 157.541695,143.298305 C157.541695,143.578983 157.313898,143.806779 157.033221,143.806779" id="Fill-55" fill="#DC3F60"></path>
                                    <path d="M89.7457629,138.888813 C89.6155929,138.888813 89.4854237,138.838983 89.3857629,138.739322 C89.1874577,138.541017 89.1874577,138.218644 89.3857629,138.020339 L91.2813557,136.124745 L89.3796609,134.147797 C89.1844071,133.944407 89.1905083,133.623051 89.3928814,133.428813 C89.5952546,133.234576 89.9186443,133.239661 90.111864,133.442034 L92.3593217,135.78 C92.5515257,135.979322 92.5474577,136.295593 92.3522031,136.491864 L90.1047454,138.739322 C90.006102,138.838983 89.875932,138.888813 89.7457629,138.888813" id="Fill-56" fill="#DC3F60"></path>
                                    <path d="M96.0752544,139.594576 L92.7111866,139.594576 C92.4305083,139.594576 92.2027123,139.366779 92.2027123,139.086102 C92.2027123,138.805424 92.4305083,138.577627 92.7111866,138.577627 L96.0752544,138.577627 C96.3569491,138.577627 96.583729,138.805424 96.583729,139.086102 C96.583729,139.366779 96.3569491,139.594576 96.0752544,139.594576" id="Fill-57" fill="#DC3F60"></path>
                                    <path d="M120.545085,210.166779 C107.413221,210.166779 94.208136,205.156271 83.3623729,196.059661 C83.2464407,195.963051 83.180339,195.820678 83.180339,195.670169 L83.180339,131.28 C83.180339,129.884745 84.3152542,128.749831 85.7094915,128.749831 L157.92,128.749831 C159.315255,128.749831 160.450169,129.884745 160.450169,131.28 L160.450169,194.692881 C160.450169,194.833221 160.392203,194.96644 160.291526,195.063051 C149.979661,204.802373 135.864407,210.166779 120.545085,210.166779 L120.545085,210.166779 L120.545085,210.166779 Z M84.1972881,195.432203 C94.8254237,204.280678 107.725424,209.149831 120.545085,209.149831 C135.525763,209.149831 149.326779,203.938983 159.433221,194.473221 L159.433221,131.28 C159.433221,130.445085 158.753898,129.766779 157.92,129.766779 L85.7094915,129.766779 C84.8755932,129.766779 84.1972881,130.445085 84.1972881,131.28 L84.1972881,195.432203 L84.1972881,195.432203 Z" id="Fill-58" fill="#DC3F60"></path>
                                </g>
                            </g>
                        </g>
                    </g>
                </g>
            </g>
        </g>
    </g>
</svg>